<svg xmlns="http://www.w3.org/2000/svg" version="1.1" xmlns:xlink="http://www.w3.org/1999/xlink" xmlns:svgjs="http://svgjs.com/svgjs" width="1440" height="560" preserveAspectRatio="none" viewBox="0 0 1440 560"><g mask="url(&quot;#SvgjsMask1085&quot;)" fill="none"><rect width="1440" height="560" x="0" y="0" fill="url(#SvgjsLinearGradient1086)"></rect><path d="M148.397,310.724C203.027,309.498,244.173,266.786,270.877,219.111C296.851,172.738,306.821,118.216,282.775,70.814C256.348,18.72,206.733,-19.31,148.397,-22.33C84.638,-25.63,17.696,-0.746,-12.449,55.533C-41.408,109.599,-16.693,172.945,16.011,224.831C46.074,272.527,92.031,311.989,148.397,310.724" fill="rgba(28, 83, 142, 0.4)" class="triangle-float2"></path><path d="M186.36820968895927 76.64829592769757L87.62028730382377-59.26655912729359 50.453354633968104 175.39621831283307z" fill="rgba(28, 83, 142, 0.4)" class="triangle-float3"></path><path d="M180.80208468823614 13.027196045724985L29.80468490997609-60.61915661484003-43.841667750588925 90.37824316342002 107.15573202767112 164.02459582398504z" fill="rgba(28, 83, 142, 0.4)" class="triangle-float1"></path><path d="M1476.148,292.589C1527.576,289.174,1575.152,264.823,1600.931,220.192C1626.719,175.546,1623.999,122.183,1601.321,75.88C1575.087,22.317,1535.774,-33.162,1476.148,-34.581C1414.963,-36.037,1370.715,16.607,1340.215,69.667C1309.844,122.503,1287.208,186.883,1318.936,238.915C1349.835,289.587,1416.928,296.521,1476.148,292.589" fill="rgba(28, 83, 142, 0.4)" class="triangle-float3"></path><path d="M1259.1979153117636 98.97280395427501L1410.1953150900235 172.61915661484 1483.8416677505886 21.621756836579962 1332.8442679723287-52.02459582398504z" fill="rgba(28, 83, 142, 0.4)" class="triangle-float1"></path><path d="M1351.514,67.859C1367.338,66.586,1381.364,59.049,1390.07,45.774C1399.859,30.847,1406.125,12.545,1398.315,-3.507C1389.629,-21.359,1371.344,-34.417,1351.514,-33.465C1332.859,-32.569,1321.393,-15.44,1311.898,0.642C1302.167,17.124,1290.753,36.494,1300.471,52.983C1310.115,69.346,1332.581,69.382,1351.514,67.859" fill="rgba(28, 83, 142, 0.4)" class="triangle-float3"></path><path d="M93.145,641.295C129.139,641.615,160.741,621.63,180.912,591.817C204.383,557.126,225.086,513.333,204.341,476.946C183.486,440.366,135.18,435.417,93.145,437.875C56.041,440.045,20.526,456.306,2.405,488.756C-15.306,520.473,-10.53,559.058,8.042,590.279C26.165,620.745,57.697,640.98,93.145,641.295" fill="rgba(28, 83, 142, 0.4)" class="triangle-float2"></path><path d="M-58.30952132988163 438.00336708925556L-14.827921752658156 600.2789059058191 147.44761706390534 556.7973063285956 103.96601748668185 394.52176751203206z" fill="rgba(28, 83, 142, 0.4)" class="triangle-float2"></path><path d="M139.0660536627245 401.42196652731354L-28.013624759145415 418.98274835627933-10.452842930179628 586.0624267781493 156.6268354916903 568.5016449491834z" fill="rgba(28, 83, 142, 0.4)" class="triangle-float1"></path><path d="M1427.445,656.687C1466.707,655.499,1502.196,635.918,1523.257,602.762C1546.126,566.76,1559.496,520.43,1537.026,484.178C1515.317,449.152,1468.652,447.943,1427.445,448.179C1386.825,448.412,1342.445,451.553,1320.018,485.422C1295.665,522.2,1297.593,571.515,1321.032,608.882C1343.178,644.189,1385.786,657.948,1427.445,656.687" fill="rgba(28, 83, 142, 0.4)" class="triangle-float1"></path><path d="M1400.0859326395657 372.9905919663112L1267.7001260336365 476.4217198210218 1371.131253888347 608.8075264269511 1503.5170604942764 505.3763985722405z" fill="rgba(28, 83, 142, 0.4)" class="triangle-float3"></path><path d="M1255.9274982761976 535.9320610739254L1399.9316047941525 622.4584576588145 1486.4580013790417 478.4543511408596 1342.4538948610866 391.92795455597053z" fill="rgba(28, 83, 142, 0.4)" class="triangle-float3"></path></g><defs><mask id="SvgjsMask1085"><rect width="1440" height="560" fill="#ffffff"></rect></mask><linearGradient x1="15.28%" y1="-39.29%" x2="84.72%" y2="139.29%" gradientUnits="userSpaceOnUse" id="SvgjsLinearGradient1086"><stop stop-color="#0e2a47" offset="0"></stop><stop stop-color="rgba(53, 108, 177, 1)" offset="1"></stop></linearGradient><style>
            @keyframes float1 {
                0%{transform: translate(0, 0)}
                50%{transform: translate(-10px, 0)}
                100%{transform: translate(0, 0)}
            }

            .triangle-float1 {
                animation: float1 5s infinite;
            }

            @keyframes float2 {
                0%{transform: translate(0, 0)}
                50%{transform: translate(-5px, -5px)}
                100%{transform: translate(0, 0)}
            }

            .triangle-float2 {
                animation: float2 4s infinite;
            }

            @keyframes float3 {
                0%{transform: translate(0, 0)}
                50%{transform: translate(0, -10px)}
                100%{transform: translate(0, 0)}
            }

            .triangle-float3 {
                animation: float3 6s infinite;
            }
        </style></defs></svg>