<svg xmlns="http://www.w3.org/2000/svg" version="1.1" xmlns:xlink="http://www.w3.org/1999/xlink" xmlns:svgjs="http://svgjs.com/svgjs" width="1440" height="560" preserveAspectRatio="none" viewBox="0 0 1440 560"><g mask="url(&quot;#SvgjsMask1096&quot;)" fill="none"><rect width="1440" height="560" x="0" y="0" fill="url(#SvgjsLinearGradient1097)"></rect><path d="M26.126,80.832C44.331,79.864,56.761,64.86,66.234,49.283C76.244,32.823,86.805,13.336,77.393,-3.473C67.858,-20.502,45.643,-22.435,26.126,-22.345C6.822,-22.256,-14.011,-19.319,-24.325,-3.002C-35.21,14.219,-32.624,36.525,-22.119,53.981C-11.948,70.882,6.428,81.879,26.126,80.832" fill="rgba(28, 83, 142, 0.4)" class="triangle-float2"></path><path d="M52.74271364109988 149.27647718844892L151.88230627556896-15.363895391859103-16.015352663639135-21.22701083787925z" fill="rgba(28, 83, 142, 0.4)" class="triangle-float1"></path><path d="M187.00940803368883 39.91406736043404L54.623601427759525-63.517060494276556-48.807526426951085 68.86874611165274 83.57828017897823 172.29987396636335z" fill="rgba(28, 83, 142, 0.4)" class="triangle-float3"></path><path d="M1502.6347614719373-1.8620393066016518L1343.787640771252-56.55748925540393 1289.0921908224498 102.28963144528129 1447.939311523135 156.98508139408358z" fill="rgba(28, 83, 142, 0.4)" class="triangle-float1"></path><path d="M1379.1153107506584-37.20542324376023L1294.7023281557128 135.44902784434964 1462.4720899944814 126.656587195535z" fill="rgba(28, 83, 142, 0.4)" class="triangle-float3"></path><path d="M1368.82,97.14C1389.805,96.596,1409.807,88.661,1421.58,71.281C1435.076,51.356,1443.157,25.687,1431.468,4.65C1419.538,-16.821,1393.383,-23.683,1368.82,-23.672C1344.281,-23.661,1318.742,-16.427,1306.271,4.707C1293.633,26.124,1297.161,53.549,1311.098,74.145C1323.539,92.529,1346.629,97.715,1368.82,97.14" fill="rgba(28, 83, 142, 0.4)" class="triangle-float1"></path><path d="M42.20294676200081 635.2701929006355L172.76346828677194 529.5443672042629-63.52287893437181 504.70967137586433z" fill="rgba(28, 83, 142, 0.4)" class="triangle-float1"></path><path d="M125.056,712.829C172.623,710.864,209.378,676.706,233.835,635.86C259.16,593.564,274.707,543.452,252.967,499.206C228.794,450.008,179.867,415.234,125.056,414.469C69.03,413.687,17.555,446.312,-9.194,495.546C-34.819,542.711,-28.7,599.873,-0.486,645.537C26.262,688.829,74.21,714.929,125.056,712.829" fill="rgba(28, 83, 142, 0.4)" class="triangle-float2"></path><path d="M59.662,586.112C88.77,585.536,116.674,574.145,132.6,549.773C150.213,522.818,158.203,487.948,141.978,460.136C125.847,432.486,91.572,422.209,59.662,424.748C31.869,426.96,11.809,447.849,-2.714,471.649C-18.091,496.848,-32.582,526.842,-18.457,552.763C-3.936,579.409,29.322,586.713,59.662,586.112" fill="rgba(28, 83, 142, 0.4)" class="triangle-float3"></path><path d="M1348.3012439816412 597.9706747215884L1460.2841858391569 596.0160052006127 1401.3607106289353 429.0189271748268z" fill="rgba(28, 83, 142, 0.4)" class="triangle-float2"></path><path d="M1369.691,556.288C1394.051,556.646,1417.293,545.296,1430.039,524.533C1443.397,502.773,1446.695,474.69,1433.019,453.128C1420.077,432.723,1393.839,428.526,1369.691,429.385C1347.345,430.179,1325.409,438.315,1313.71,457.37C1301.476,477.297,1300.818,502.455,1312.335,522.805C1324.021,543.455,1345.967,555.94,1369.691,556.288" fill="rgba(28, 83, 142, 0.4)" class="triangle-float1"></path><path d="M1421.852,653.225C1459.099,649.969,1485.417,621.697,1505.252,590.003C1526.877,555.449,1551.512,514.061,1530.983,478.845C1510.525,443.75,1462.453,445.619,1421.852,446.934C1384.394,448.147,1345.929,454.923,1324.311,485.537C1299.035,521.33,1286.657,569.311,1308.689,607.187C1330.635,644.915,1378.371,657.026,1421.852,653.225" fill="rgba(28, 83, 142, 0.4)" class="triangle-float2"></path></g><defs><mask id="SvgjsMask1096"><rect width="1440" height="560" fill="#ffffff"></rect></mask><linearGradient x1="15.28%" y1="-39.29%" x2="84.72%" y2="139.29%" gradientUnits="userSpaceOnUse" id="SvgjsLinearGradient1097"><stop stop-color="#0e2a47" offset="0"></stop><stop stop-color="rgba(255, 99, 71, 1)" offset="1"></stop></linearGradient><style>
            @keyframes float1 {
                0%{transform: translate(0, 0)}
                50%{transform: translate(-10px, 0)}
                100%{transform: translate(0, 0)}
            }

            .triangle-float1 {
                animation: float1 5s infinite;
            }

            @keyframes float2 {
                0%{transform: translate(0, 0)}
                50%{transform: translate(-5px, -5px)}
                100%{transform: translate(0, 0)}
            }

            .triangle-float2 {
                animation: float2 4s infinite;
            }

            @keyframes float3 {
                0%{transform: translate(0, 0)}
                50%{transform: translate(0, -10px)}
                100%{transform: translate(0, 0)}
            }

            .triangle-float3 {
                animation: float3 6s infinite;
            }
        </style></defs></svg>