<svg xmlns="http://www.w3.org/2000/svg" version="1.1" xmlns:xlink="http://www.w3.org/1999/xlink" xmlns:svgjs="http://svgjs.com/svgjs" width="1440" height="560" preserveAspectRatio="none" viewBox="0 0 1440 560"><g mask="url(&quot;#SvgjsMask1009&quot;)" fill="none"><rect width="1440" height="560" x="0" y="0" fill="url(#SvgjsLinearGradient1010)"></rect><path d="M 0,133 C 57.6,161.4 172.8,281.6 288,275 C 403.2,268.4 460.8,113.4 576,100 C 691.2,86.6 748.8,224.4 864,208 C 979.2,191.6 1036.8,14.4 1152,18 C 1267.2,21.6 1382.4,184.4 1440,226L1440 560L0 560z" fill="#184a7e"></path><path d="M 0,375 C 96,408.4 288,559 480,542 C 672,525 768,301.4 960,290 C 1152,278.6 1344,446 1440,485L1440 560L0 560z" fill="#2264ab"></path></g><defs><mask id="SvgjsMask1009"><rect width="1440" height="560" fill="#ffffff"></rect></mask><linearGradient x1="15.28%" y1="-39.29%" x2="84.72%" y2="139.29%" gradientUnits="userSpaceOnUse" id="SvgjsLinearGradient1010"><stop stop-color="#0e2a47" offset="0"></stop><stop stop-color="rgba(255, 99, 71, 1)" offset="1"></stop></linearGradient></defs></svg>