<svg xmlns="http://www.w3.org/2000/svg" version="1.1" xmlns:xlink="http://www.w3.org/1999/xlink" xmlns:svgjs="http://svgjs.com/svgjs" width="1440" height="250" preserveAspectRatio="none" viewBox="0 0 1440 250"><g mask="url(&quot;#SvgjsMask1010&quot;)" fill="none"><rect width="1440" height="250" x="0" y="0" fill="url(#SvgjsLinearGradient1011)"></rect><path d="M19 250L269 0L468.5 0L218.5 250z" fill="url(#SvgjsLinearGradient1012)"></path><path d="M248.60000000000002 250L498.6 0L848.1 0L598.1 250z" fill="url(#SvgjsLinearGradient1012)"></path><path d="M501.20000000000005 250L751.2 0L1052.7 0L802.7 250z" fill="url(#SvgjsLinearGradient1012)"></path><path d="M729.8000000000001 250L979.8000000000001 0L1278.3000000000002 0L1028.3000000000002 250z" fill="url(#SvgjsLinearGradient1012)"></path><path d="M1412 250L1162 0L914.5 0L1164.5 250z" fill="url(#SvgjsLinearGradient1013)"></path><path d="M1179.4 250L929.4000000000001 0L839.4000000000001 0L1089.4 250z" fill="url(#SvgjsLinearGradient1013)"></path><path d="M925.8 250L675.8 0L582.8 0L832.8 250z" fill="url(#SvgjsLinearGradient1013)"></path><path d="M725.1999999999999 250L475.19999999999993 0L157.19999999999993 0L407.19999999999993 250z" fill="url(#SvgjsLinearGradient1013)"></path><path d="M1210.2751272446128 250L1440 20.27512724461289L1440 250z" fill="url(#SvgjsLinearGradient1012)"></path><path d="M0 250L229.7248727553871 250L 0 20.27512724461289z" fill="url(#SvgjsLinearGradient1013)"></path></g><defs><mask id="SvgjsMask1010"><rect width="1440" height="250" fill="#ffffff"></rect></mask><linearGradient x1="20.66%" y1="-119%" x2="79.34%" y2="219%" gradientUnits="userSpaceOnUse" id="SvgjsLinearGradient1011"><stop stop-color="#0e2a47" offset="0"></stop><stop stop-color="#00459e" offset="1"></stop></linearGradient><linearGradient x1="0%" y1="100%" x2="100%" y2="0%" id="SvgjsLinearGradient1012"><stop stop-color="rgba(15, 70, 185, 0.2)" offset="0"></stop><stop stop-opacity="0" stop-color="rgba(15, 70, 185, 0.2)" offset="0.66"></stop></linearGradient><linearGradient x1="100%" y1="100%" x2="0%" y2="0%" id="SvgjsLinearGradient1013"><stop stop-color="rgba(15, 70, 185, 0.2)" offset="0"></stop><stop stop-opacity="0" stop-color="rgba(15, 70, 185, 0.2)" offset="0.66"></stop></linearGradient></defs></svg>