<svg xmlns="http://www.w3.org/2000/svg" version="1.1" xmlns:xlink="http://www.w3.org/1999/xlink" xmlns:svgjs="http://svgjs.com/svgjs" width="1440" height="560" preserveAspectRatio="none" viewBox="0 0 1440 560"><g mask="url(&quot;#SvgjsMask1087&quot;)" fill="none"><rect width="1440" height="560" x="0" y="0" fill="url(#SvgjsLinearGradient1088)"></rect><path d="M326.47052699267914 83.67325657128535L255.03124678788708 23.728582899873942 200.83387638316603 160.85984004276776z" fill="rgba(28, 83, 142, 0.4)" class="triangle-float1"></path><path d="M94.846,250.97C130.476,251.823,163.086,231.299,180.829,200.39C198.495,169.615,199.522,131.271,180.899,101.066C163.096,72.19,128.769,60.89,94.846,60.934C61.015,60.978,26.242,72.075,9.18,101.289C-8.004,130.712,-1.218,166.866,15.707,196.439C32.763,226.239,60.52,250.149,94.846,250.97" fill="rgba(28, 83, 142, 0.4)" class="triangle-float1"></path><path d="M89.162,215.81C112.098,215.822,129.591,197.823,140.983,177.916C152.282,158.171,159.214,133.803,147.116,114.538C135.52,96.072,110.964,95.02,89.162,95.394C68.254,95.753,45.668,98.756,34.557,116.471C22.89,135.072,26.86,158.619,37.437,177.861C48.478,197.947,66.242,215.798,89.162,215.81" fill="rgba(28, 83, 142, 0.4)" class="triangle-float1"></path><path d="M94.96070644781621 103.75462410478386L-24.24597196167538 95.41888112123281-32.58171494522642 214.6255595307244 86.62496346426516 222.96130251427545z" fill="rgba(28, 83, 142, 0.4)" class="triangle-float1"></path><path d="M1248.0089836966542 274.03013582530826L1286.6659074739516 209.6942107319643 1170.8335579452869 183.87678761269015z" fill="rgba(28, 83, 142, 0.4)" class="triangle-float2"></path><path d="M158.02023874671053 264.4618356202286L183.74722939472673 426.89566179217127 346.18105556666944 401.1686711441551 320.4540649186532 238.73484497221241z" fill="rgba(28, 83, 142, 0.4)" class="triangle-float3"></path><path d="M611.9081517145922 371.99483360674617L527.1057181897584 342.79501406998463 497.9058986529968 427.5974475948185 582.7083321778307 456.79726713158004z" fill="rgba(28, 83, 142, 0.4)" class="triangle-float1"></path><path d="M552.5167633722883 144.61299338649468L396.1175707961859 201.53764414746362 453.0422215571548 357.9368367235661 609.4414141332572 301.0121859625972z" fill="rgba(28, 83, 142, 0.4)" class="triangle-float1"></path><path d="M524.5235889714415 271.4049666571682L611.1249816978764 168.19744575177737 507.9174607924856 81.59605302534251 421.3160680660507 184.80357393073334z" fill="rgba(28, 83, 142, 0.4)" class="triangle-float1"></path></g><defs><mask id="SvgjsMask1087"><rect width="1440" height="560" fill="#ffffff"></rect></mask><linearGradient x1="15.28%" y1="-39.29%" x2="84.72%" y2="139.29%" gradientUnits="userSpaceOnUse" id="SvgjsLinearGradient1088"><stop stop-color="#0e2a47" offset="0"></stop><stop stop-color="rgba(53, 108, 177, 1)" offset="1"></stop></linearGradient><style>
            @keyframes float1 {
                0%{transform: translate(0, 0)}
                50%{transform: translate(-10px, 0)}
                100%{transform: translate(0, 0)}
            }

            .triangle-float1 {
                animation: float1 5s infinite;
            }

            @keyframes float2 {
                0%{transform: translate(0, 0)}
                50%{transform: translate(-5px, -5px)}
                100%{transform: translate(0, 0)}
            }

            .triangle-float2 {
                animation: float2 4s infinite;
            }

            @keyframes float3 {
                0%{transform: translate(0, 0)}
                50%{transform: translate(0, -10px)}
                100%{transform: translate(0, 0)}
            }

            .triangle-float3 {
                animation: float3 6s infinite;
            }
        </style></defs></svg>