<svg xmlns="http://www.w3.org/2000/svg" version="1.1" xmlns:xlink="http://www.w3.org/1999/xlink" xmlns:svgjs="http://svgjs.com/svgjs" width="1440" height="560" preserveAspectRatio="none" viewBox="0 0 1440 560"><g mask="url(&quot;#SvgjsMask1195&quot;)" fill="none"><rect width="1440" height="560" x="0" y="0" fill="#1e3266"></rect><path d="M1560 560L0 560 L0 137.01Q24.19 89.2, 72 113.39Q121.46 90.85, 144 140.31Q258.63 134.94, 264 249.56Q271.1 184.66, 336 191.76Q365.43 149.19, 408 178.62Q414.53 113.15, 480 119.67Q549.83 69.5, 600 139.33Q718.11 137.44, 720 255.55Q733.98 197.53, 792 211.5Q833.61 181.11, 864 222.71Q922.76 209.47, 936 268.23Q983.71 195.94, 1056 243.66Q1083.5 151.16, 1176 178.66Q1207.55 90.21, 1296 121.76Q1339.24 93, 1368 136.25Q1461.9 158.16, 1440 252.06Q1434.83 126.89, 1560 121.72z" fill="#182f5d"></path><path d="M1488 560L0 560 L0 288.24Q58.16 274.4, 72 332.57Q97.24 237.81, 192 263.05Q258.55 209.6, 312 276.15Q411.53 255.68, 432 355.21Q476.65 327.86, 504 372.5Q505.29 301.79, 576 303.09Q602 209.08, 696 235.08Q769.66 188.74, 816 262.4Q900.63 227.03, 936 311.67Q954.66 210.33, 1056 228.99Q1122.37 175.36, 1176 241.73Q1297.96 243.69, 1296 365.65Q1263.5 261.15, 1368 228.65Q1442.34 182.99, 1488 257.32z" fill="#25467d"></path><path d="M1512 560L0 560 L0 488.14Q7.19 375.32, 120 382.51Q173.47 315.98, 240 369.44Q317.06 326.5, 360 403.55Q392.94 316.49, 480 349.42Q561.2 310.62, 600 391.82Q621.37 341.19, 672 362.56Q753.17 323.74, 792 404.91Q850.63 391.54, 864 450.17Q920.38 434.55, 936 490.93Q958.55 393.48, 1056 416.03Q1084.76 372.79, 1128 401.55Q1215.61 369.16, 1248 456.77Q1298.61 435.38, 1320 485.98Q1346.07 392.05, 1440 418.11Q1468.1 374.21, 1512 402.31z" fill="#356cb1"></path><path d="M1464 560L0 560 L0 548.43Q57.08 485.5, 120 542.58Q113.76 464.35, 192 458.11Q294.24 440.35, 312 542.59Q379.57 490.16, 432 557.74Q476.59 530.33, 504 574.91Q544.95 495.86, 624 536.8Q640.37 433.17, 744 449.54Q814.71 400.25, 864 470.96Q939.1 474.06, 936 549.17Q1007.46 500.63, 1056 572.08Q1074.31 518.39, 1128 536.7Q1149.36 438.06, 1248 459.42Q1295.07 434.49, 1320 481.55Q1383.25 472.8, 1392 536.05Q1418.62 490.67, 1464 517.29z" fill="white"></path></g><defs><mask id="SvgjsMask1195"><rect width="1440" height="560" fill="#ffffff"></rect></mask></defs></svg>